<svg viewBox="0 0 400 225" xmlns="http://www.w3.org/2000/svg">
<rect width="400" height="225" fill="#0f2c4a"/>
<g fill="none" stroke="#4a95a8" stroke-width="1" opacity="0.25">
<line x1="0" y1="37.5" x2="400" y2="37.5"/><line x1="0" y1="75" x2="400" y2="75"/>
<line x1="0" y1="112.5" x2="400" y2="112.5"/><line x1="0" y1="150" x2="400" y2="150"/>
<line x1="0" y1="187.5" x2="400" y2="187.5"/>
<line x1="50" y1="0" x2="50" y2="225"/><line x1="100" y1="0" x2="100" y2="225"/>
<line x1="150" y1="0" x2="150" y2="225"/><line x1="200" y1="0" x2="200" y2="225"/>
<line x1="250" y1="0" x2="250" y2="225"/><line x1="300" y1="0" x2="300" y2="225"/>
<line x1="350" y1="0" x2="350" y2="225"/>
</g>
<g fill="none" stroke="#6fd6e8" stroke-width="2.5" stroke-linecap="round" stroke-linejoin="round">
<rect x="140" y="75" width="120" height="80" rx="4"/>
<path d="M100 170 L300 170 L320 155 L80 155 Z"/>
<line x1="160" y1="95" x2="240" y2="95"/>
<line x1="160" y1="110" x2="220" y2="110"/>
<line x1="160" y1="125" x2="230" y2="125"/>
</g>
</svg>
